<svg xmlns="http://www.w3.org/2000/svg" viewBox="0 0 215.43 215.43"><defs><style>.cls-1{fill:#fff;}</style></defs><g id="Calque_2" data-name="Calque 2"><g id="Calque_1-2" data-name="Calque 1"><rect class="cls-1" width="215.43" height="215.43" rx="36.85"/><ellipse cx="107.72" cy="136.47" rx="75.38" ry="70.94"/><path d="M106.5,8.33A1.6,1.6,0,0,0,104,9.52a62,62,0,0,1-1.27,8.66c-1.34,6-12.09,18.49-13,19.58a.86.86,0,0,1-.14.13C88.24,39,69.69,56.14,69.69,77.38c0,22,19.81,33.47,35.49,33.47s36.38-6.92,39.87-24.11c2.45-12.08-2.14-24.07-5.07-30.11a1.75,1.75,0,0,0-3.19.1,9.51,9.51,0,0,1-7.89,5.91c-8.66,1.17-10-4-8.89-7.72s6.26-11.59,4-22.94C120.93,20,111.09,11.66,106.5,8.33Z"/><path class="cls-1" d="M69.76,75.18c0,.73-.07,1.46-.07,2.2,0,22,19.81,33.47,35.49,33.47s36.38-6.92,39.87-24.11a38,38,0,0,0,.43-11.66,79.38,79.38,0,0,0-75.72.1Z"/><circle cx="107.72" cy="81.76" r="10.41"/></g></g></svg>